<svg width="38" height="38" fill="none" xmlns="http://www.w3.org/2000/svg">
  <path d="M16.39 1.354c1.272-1.805 3.949-1.805 5.22 0a3.193 3.193 0 003.952 1.06c2.004-.929 4.323.41 4.522 2.61a3.193 3.193 0 002.893 2.892c2.2.2 3.538 2.517 2.61 4.522a3.193 3.193 0 001.059 3.951c1.805 1.272 1.805 3.95 0 5.221a3.193 3.193 0 00-1.06 3.952c.929 2.004-.41 4.323-2.61 4.522a3.193 3.193 0 00-2.892 2.892c-.2 2.2-2.517 3.539-4.522 2.61a3.193 3.193 0 00-3.952 1.06c-1.271 1.805-3.948 1.805-5.22 0a3.193 3.193 0 00-3.952-1.06c-2.004.929-4.323-.41-4.522-2.61a3.193 3.193 0 00-2.892-2.892c-2.2-.2-3.539-2.518-2.61-4.522a3.193 3.193 0 00-1.06-3.952c-1.805-1.272-1.805-3.949 0-5.22a3.193 3.193 0 001.06-3.952c-.929-2.005.41-4.323 2.61-4.522a3.193 3.193 0 002.892-2.892c.2-2.2 2.518-3.539 4.522-2.61 1.4.647 3.063.201 3.952-1.06z" fill="#2BE080"/>
</svg>
